<?xml version="1.0" encoding="iso-8859-1"?>
<!-- Generator: Adobe Illustrator 19.0.0, SVG Export Plug-In . SVG Version: 6.00 Build 0)  -->
<svg xmlns="http://www.w3.org/2000/svg" xmlns:xlink="http://www.w3.org/1999/xlink" version="1.1" id="Capa_1" x="0px" y="0px" viewBox="0 0 448 448" style="enable-background:new 0 0 448 448;" xml:space="preserve" width="512px" height="512px">
<g>
	<g>
		<path d="M392,312h-8v-32h-16v32H32V112c0-4.418,3.582-8,8-8h320c4.418,0,8,3.582,8,8v24h16v-24c0-13.255-10.745-24-24-24H40    c-13.255,0-24,10.745-24,24v200H8c-4.418,0-8,3.582-8,8v24c0,8.837,7.163,16,16,16h368c8.837,0,16-7.163,16-16v-24    C400,315.582,396.418,312,392,312z M384,344H16v-16h144c0,4.418,3.582,8,8,8h64c4.418,0,8-3.582,8-8h144V344z" fill="#FFFFFF"/>
	</g>
</g>
<g>
	<g>
		<path d="M352,144v-8c0-8.837-7.163-16-16-16H64c-8.837,0-16,7.163-16,16v152c0,4.418,3.582,8,8,8h288c4.418,0,8-3.582,8-8v-16h-16    v8H64V136h272v8H352z" fill="#FFFFFF"/>
	</g>
</g>
<g>
	<g>
		<path d="M280,224v-48h-16v56c0,4.418,3.582,8,8,8h24v-16H280z" fill="#FFFFFF"/>
	</g>
</g>
<g>
	<g>
		<rect x="304" y="176" width="16" height="64" fill="#FFFFFF"/>
	</g>
</g>
<g>
	<g>
		<path d="M360.312,173.8L352,202.88l-8.312-29.08l-15.376,4.4l16,56c0.982,3.432,4.118,5.798,7.688,5.8    c3.57-0.002,6.706-2.368,7.688-5.8l16-56L360.312,173.8z" fill="#FFFFFF"/>
	</g>
</g>
<g>
	<g>
		<path d="M416,192v-16h-24c-4.418,0-8,3.582-8,8v48c0,4.418,3.582,8,8,8h24v-16h-16v-8h16v-16h-16v-8H416z" fill="#FFFFFF"/>
	</g>
</g>
<g>
	<g>
		<path d="M440,152H240c-4.418,0-8,3.582-8,8v96c0,4.418,3.582,8,8,8h200c4.418,0,8-3.582,8-8v-96C448,155.582,444.418,152,440,152z     M432,248H248v-80h184V248z" fill="#FFFFFF"/>
	</g>
</g>
<g>
	<g>
		<rect x="192" y="200" width="16" height="16" fill="#FFFFFF"/>
	</g>
</g>
<g>
	<g>
		<rect x="144" y="200" width="16" height="16" fill="#FFFFFF"/>
	</g>
</g>
<g>
</g>
<g>
</g>
<g>
</g>
<g>
</g>
<g>
</g>
<g>
</g>
<g>
</g>
<g>
</g>
<g>
</g>
<g>
</g>
<g>
</g>
<g>
</g>
<g>
</g>
<g>
</g>
<g>
</g>
</svg>
